<?xml version="1.0" encoding="UTF-8"?>
<!-- Generator: Adobe Illustrator 27.3.1, SVG Export Plug-In . SVG Version: 6.00 Build 0)  -->
<svg version="1.1" id="Layer_1" xmlns="http://www.w3.org/2000/svg" xmlns:xlink="http://www.w3.org/1999/xlink" x="0px" y="0px" viewBox="0 0 238.5 46" style="enable-background:new 0 0 238.5 46;" xml:space="preserve">
<style type="text/css">
	.st0{fill:#FFFFFF;}
	.st1{fill:#EC1C24;}
</style>
<g>
	<path class="st0" d="M221.2,17.1l3.6-7.6l0.4,7.6H221.2z M204.7,25.6c-0.4,1.3-0.7,2.7-0.9,4c-0.3,1.3-0.5,2.7-0.6,4h15   c0.7-2.5,1.1-4.9,1.4-7.2h-1.8l0.8-2h6v2h-1.8c-0.4,1.2-0.7,2.5-0.9,3.6c-0.2,1.2-0.4,2.4-0.5,3.6h14.9c0.4-1.3,0.7-2.7,0.9-4   c0.3-1.3,0.5-2.7,0.6-4h-2.2l-2.5-24.2h-13.4l-12.6,24.2H204.7z M187.1,14.3l1-5.1h3.7c0.5,0,1.1,0.1,1.6,0.4   c0.5,0.2,0.8,0.8,0.8,1.7c0,0.9-0.3,1.7-0.9,2.2c-0.6,0.6-1.4,0.8-2.4,0.8C190.8,14.3,187.1,14.3,187.1,14.3z M173,25.6   c-0.4,1.3-0.7,2.7-0.9,4c-0.3,1.3-0.5,2.7-0.6,4h13.7c0.4-1.3,0.7-2.7,0.9-4c0.3-1.3,0.5-2.7,0.6-4h-1.9l0.8-3.6h2.5l2.6,11.6h10.5   c0.3-1.3,0.7-2.7,0.9-4s0.5-2.7,0.6-4h-3.1l-1.4-5.4c1.8-1.1,3.2-2.5,4.4-4.2c1.1-1.7,1.7-3.6,1.7-5.9c0-1.6-0.2-3-0.8-4.1   c-0.5-1.1-1.2-2-2.1-2.7c-0.9-0.7-2-1.2-3.3-1.5c-1.3-0.3-2.8-0.4-4.4-0.4h-15.7c-0.7,2.6-1.2,5.3-1.6,7.9h2l-3.3,16.3   C175.1,25.6,173,25.6,173,25.6z M156.4,25.6c-0.4,1.3-0.7,2.7-0.9,4s-0.5,2.7-0.6,4h14.5c0.4-1.3,0.7-2.7,0.9-4   c0.3-1.3,0.5-2.7,0.6-4h-2l3.3-16.3h2c0.7-2.6,1.3-5.3,1.6-7.9h-14.5c-0.7,2.6-1.2,5.3-1.6,7.9h2l-3.3,16.3H156.4z M126.8,25.6   c-0.3,1.3-0.7,2.7-0.9,4s-0.5,2.7-0.6,4h27.5l2-10.2c-0.9-0.1-1.7-0.1-2.6-0.1c-0.9,0-1.7-0.1-2.6-0.1c-1.4,0-2.9,0.1-4.3,0.1   l-0.4,2h-5.6l0.8-3.9h10.3c0.4-1.4,0.7-2.8,1-4.2c0.3-1.4,0.5-2.8,0.6-4.2h-10.3l0.8-3.7h5.3l-0.4,1.8c0.8,0.1,1.5,0.1,2.3,0.1   c0.8,0,1.6,0.1,2.3,0.1s1.5,0,2.3-0.1c0.8,0,1.6-0.1,2.4-0.1l1.9-9.8h-27.2c-0.7,2.7-1.2,5.3-1.6,7.9h2l-3.3,16.3H126.8z    M109.1,14.3l1-5.1h3.7c0.5,0,1,0.1,1.6,0.4c0.5,0.2,0.8,0.8,0.8,1.7c0,0.9-0.3,1.7-0.9,2.2c-0.6,0.6-1.4,0.8-2.4,0.8   C112.8,14.3,109.1,14.3,109.1,14.3z M95,25.6c-0.3,1.3-0.7,2.7-0.9,4c-0.3,1.3-0.5,2.7-0.6,4h13.7c0.3-1.3,0.7-2.7,0.9-4   c0.3-1.3,0.5-2.7,0.6-4h-1.9l0.8-3.6h2.5l2.6,11.6h10.5c0.3-1.3,0.7-2.7,0.9-4s0.5-2.7,0.6-4h-3.1l-1.4-5.4   c1.8-1.1,3.2-2.5,4.4-4.2c1.1-1.7,1.7-3.6,1.7-5.9c0-1.6-0.2-3-0.8-4.1s-1.2-2-2.1-2.7s-2-1.2-3.3-1.5c-1.3-0.3-2.8-0.4-4.4-0.4   H99.9c-0.7,2.6-1.2,5.3-1.6,7.9h2l-3.3,16.3H95z M77.4,14.3l1-5.1H82c0.5,0,1,0.1,1.6,0.4c0.5,0.2,0.8,0.8,0.8,1.7   c0,0.9-0.3,1.7-0.9,2.2c-0.6,0.6-1.4,0.8-2.4,0.8C81.1,14.3,77.4,14.3,77.4,14.3z M63.3,25.6c-0.3,1.3-0.7,2.7-0.9,4   c-0.3,1.3-0.5,2.7-0.6,4h13.7c0.3-1.3,0.7-2.7,0.9-4c0.3-1.3,0.5-2.7,0.6-4h-1.9l0.8-3.6h2.5l2.6,11.6h10.5c0.3-1.3,0.7-2.7,0.9-4   c0.3-1.3,0.5-2.7,0.6-4h-3.1l-1.4-5.4c1.8-1.1,3.2-2.5,4.4-4.2c1.1-1.7,1.7-3.6,1.7-5.9c0-1.6-0.2-3-0.8-4.1   c-0.5-1.1-1.2-2-2.1-2.7c-0.9-0.7-2-1.2-3.3-1.5c-1.3-0.3-2.8-0.4-4.4-0.4H68.2c-0.7,2.6-1.2,5.3-1.6,7.9h2l-3.3,16.3   C65.4,25.6,63.3,25.6,63.3,25.6z M34,25.6c-0.4,1.3-0.7,2.7-0.9,4c-0.3,1.3-0.5,2.7-0.6,4h27.5l2-10.2c-0.9-0.1-1.7-0.1-2.6-0.1   c-0.9,0-1.7-0.1-2.6-0.1c-1.4,0-2.9,0.1-4.3,0.1l-0.4,2h-5.5l0.8-3.9h10.3c0.4-1.4,0.7-2.8,1-4.2c0.3-1.4,0.5-2.8,0.6-4.2H49   l0.7-3.7h5.3l-0.3,1.8c0.8,0.1,1.5,0.1,2.3,0.1c0.8,0,1.6,0.1,2.3,0.1c0.8,0,1.5,0,2.3-0.1c0.8,0,1.6-0.1,2.4-0.1L66,1.4H38.8   c-0.7,2.7-1.2,5.3-1.6,7.9h2L36,25.6H34z M5,25.6c-0.3,1.3-0.7,2.7-0.9,4c-0.3,1.3-0.5,2.7-0.6,4h16.4c0.3-1.3,0.7-2.7,0.9-4   s0.5-2.7,0.6-4h-3.9l0.8-3.6h10.2c0.4-1.4,0.7-2.8,1-4.2c0.3-1.4,0.5-2.8,0.7-4.2H20l0.8-4.1h4.9l-0.4,2.1c0.8,0.1,1.5,0.1,2.3,0.1   c0.8,0,1.6,0,2.3,0s1.5,0,2.3,0c0.8,0,1.6-0.1,2.4-0.1l2-10.3H9.9C9.2,4.1,8.6,6.7,8.3,9.4h2L7,25.6H5z"/>
</g>
<polygon class="st1" points="2.5,38.5 1.5,44.7 234.6,44.7 235.7,38.5 "/>
</svg>