<svg xmlns="http://www.w3.org/2000/svg" width="309.8" height="281.5" viewBox="0 0 309.8 281.5">
  <g id="Layer_1" transform="translate(-84.5 -73.2)">
    <g id="Group_1" data-name="Group 1">
      <path id="Path_1" data-name="Path 1" d="M157.8,234.5h1.6v36.7h-1.6Zm21.3,9.6a9.6,9.6,0,0,1-9.6,9.6h-5.1v17.4h-3.8V234.4h9A9.8,9.8,0,0,1,179.1,244.1Zm-1.7,0a8.024,8.024,0,0,0-8-8h-5.1v16.1h5.1A8.176,8.176,0,0,0,177.4,244.1Z" fill="#221f1f"/>
      <path id="Path_2" data-name="Path 2" d="M184,234.5h1.6v36.7H184Zm12.4,19.2,8.9,17.4h-1.7l-8.9-17.4h-4.2v17.4h-3.8V234.4h9a9.665,9.665,0,0,1,.7,19.3Zm-5.9-1.6h5.1a8,8,0,0,0,0-16h-5.1Z" fill="#221f1f"/>
      <path id="Path_3" data-name="Path 3" d="M229.9,243.8v18a9.35,9.35,0,1,1-18.7,0v-18a9.35,9.35,0,1,1,18.7,0Zm-6.7-7.2a7.675,7.675,0,0,0-10.4,7.2v18a7.64,7.64,0,0,0,7.7,7.7,8.574,8.574,0,0,0,2.7-.5Zm2.8,1.8a4.811,4.811,0,0,0-1.1-.9v30.7a10.628,10.628,0,0,0,1.1-.9Z" fill="#221f1f"/>
      <path id="Path_4" data-name="Path 4" d="M237.6,234.5h1.6v36.7h-1.6Zm21.3,9.6a9.6,9.6,0,0,1-9.6,9.6h-5.1v17.4h-3.8V234.4h9A9.735,9.735,0,0,1,258.9,244.1Zm-1.7,0a8.024,8.024,0,0,0-8-8h-5.1v16.1h5.1A8.176,8.176,0,0,0,257.2,244.1Z" fill="#221f1f"/>
      <path id="Path_5" data-name="Path 5" d="M264.8,234.5h1.6v36.7h-1.6Zm6.5,1.6v16.5H283v1.6H271.3v15.4H283v1.6H267.5V234.5H283v1.6H271.3Z" fill="#221f1f"/>
      <path id="Path_6" data-name="Path 6" d="M289.7,234.5h1.6v36.7h-1.6Zm12.4,19.2,8.9,17.4h-1.7l-8.9-17.4h-4.2v17.4h-3.8V234.4h9a9.665,9.665,0,0,1,.7,19.3Zm-5.9-1.6h5.1a8,8,0,0,0,0-16h-5.1Z" fill="#221f1f"/>
      <path id="Path_7" data-name="Path 7" d="M334.4,234.5v1.7h-7v35.1h-3.9V236.2h-1.1v35.1h-1.7V236.2h-6.8v-1.7h20.5Z" fill="#221f1f"/>
      <path id="Path_8" data-name="Path 8" d="M339.3,234.5h1.6v36.7h-1.6Zm6.6,36.7H342V234.5h3.8v36.7Z" fill="#221f1f"/>
      <path id="Path_9" data-name="Path 9" d="M352.6,234.5h1.6v36.7h-1.6Zm6.6,1.6v16.5h11.7v1.6H359.2v15.4h11.7v1.6H355.4V234.5h15.5v1.6H359.2Z" fill="#221f1f"/>
      <path id="Path_10" data-name="Path 10" d="M394.3,261.6c0,6.8-5.6,9.6-11.7,9.6-2,0-5.3-.4-6.9-1.8v-1.8a12.237,12.237,0,0,0,6.7,2c3.9,0,6.7-2,6.7-6.1,0-9-13.1-9.9-13.1-20.1,0-5.3,5.6-9,10.5-9,2.7,0,5.9,1.1,7.6,3.3v1.8a11.979,11.979,0,0,0-7.6-3.5c-3.7,0-7.6,2.4-7.6,6.5C379,249.9,394.3,250.3,394.3,261.6Zm-14.7-14.1c1.2,5.1,12.1,7.5,12.2,14.5C391.8,252.4,380.5,251.2,379.6,247.5Z" fill="#221f1f"/>
    </g>
    <g id="Group_2" data-name="Group 2">
      <path id="Path_11" data-name="Path 11" d="M189.1,219.1l.1-69.2h8.2l-.1,57.7a19.75,19.75,0,1,1-39.5,0h3.5a16.433,16.433,0,0,0,16.3,16.3,15.93,15.93,0,0,0,5.6-1.1v-73h3.6l-.1,71.1A6.589,6.589,0,0,0,189.1,219.1Z" fill="#221f1f"/>
      <path id="Path_12" data-name="Path 12" d="M254.9,149.9v77.5h-3.4V159.8l-19.1,52.3-18.2-33.8v49.1h-3.4V149.9h3.6l22.5,40.8,14.8-40.8ZM233,200.8l-18.8-34.6V171l17.7,32.6Zm32.3-50.9v77.5h-8V149.9Z" fill="#5d4f66"/>
      <path id="Path_13" data-name="Path 13" d="M278.6,149.9H282v77.5h-3.4Zm13.8,3.4v34.8H317v3.4H292.4v35.9h-8V149.9H317v3.4H292.4Z" fill="#221f1f"/>
    </g>
    <g id="Group_13" data-name="Group 13">
      <rect id="Rectangle_1" data-name="Rectangle 1" width="13.1" height="265" transform="translate(108.4 81.5)" fill="#5d4f66" stroke="#221f1f" stroke-miterlimit="10" stroke-width="3.056"/>
      <rect id="Rectangle_2" data-name="Rectangle 2" width="10.6" height="230.3" transform="translate(121.6 98.8)" fill="#d2d3d3" stroke="#221f1f" stroke-miterlimit="10" stroke-width="2.759"/>
      <rect id="Rectangle_3" data-name="Rectangle 3" width="7.9" height="109.7" transform="translate(132.2 158.9)" fill="#d2d3d3" stroke="#221f1f" stroke-miterlimit="10" stroke-width="2.394"/>
      <rect id="Rectangle_4" data-name="Rectangle 4" width="10.6" height="230.3" transform="translate(108.481 329.169) rotate(180)" fill="#d2d3d3" stroke="#221f1f" stroke-miterlimit="10" stroke-width="2.759"/>
      <rect id="Rectangle_5" data-name="Rectangle 5" width="7.9" height="109.7" transform="translate(97.828 268.569) rotate(180)" fill="#d2d3d3" stroke="#221f1f" stroke-miterlimit="10" stroke-width="2.394"/>
      <g id="Group_3" data-name="Group 3">
        <path id="Path_14" data-name="Path 14" d="M103.1,80h5.3V73.2" fill="none" stroke="#221f1f" stroke-miterlimit="10" stroke-width="3"/>
        <path id="Path_15" data-name="Path 15" d="M126.9,80h-5.3V73.2" fill="none" stroke="#221f1f" stroke-miterlimit="10" stroke-width="3"/>
        <rect id="Rectangle_6" data-name="Rectangle 6" width="10.1" height="3.1" transform="translate(110 80)" fill="#564f5d"/>
        <line id="Line_1" data-name="Line 1" x2="12.2" transform="translate(108.7 80)" fill="none" stroke="#221f1f" stroke-miterlimit="10" stroke-width="3"/>
      </g>
      <g id="Group_4" data-name="Group 4">
        <path id="Path_16" data-name="Path 16" d="M126.9,347.9h-5.3v6.8" fill="none" stroke="#221f1f" stroke-miterlimit="10" stroke-width="3"/>
        <path id="Path_17" data-name="Path 17" d="M103.1,347.9h5.3v6.8" fill="none" stroke="#221f1f" stroke-miterlimit="10" stroke-width="3"/>
        <rect id="Rectangle_7" data-name="Rectangle 7" width="10.1" height="3.1" transform="translate(120.007 347.965) rotate(180)" fill="#564f5d"/>
        <line id="Line_2" data-name="Line 2" x1="12.1" transform="translate(109.2 347.9)" fill="none" stroke="#221f1f" stroke-miterlimit="10" stroke-width="3"/>
      </g>
      <g id="Group_5" data-name="Group 5">
        <path id="Path_18" data-name="Path 18" d="M92.6,329.2h5.2v6.7" fill="none" stroke="#221f1f" stroke-miterlimit="10" stroke-width="3"/>
        <line id="Line_3" data-name="Line 3" x1="12.1" transform="translate(96.9 329.2)" fill="none" stroke="#221f1f" stroke-miterlimit="10" stroke-width="3"/>
      </g>
      <g id="Group_6" data-name="Group 6">
        <path id="Path_19" data-name="Path 19" d="M137.4,329.2h-5.2v6.7" fill="none" stroke="#221f1f" stroke-miterlimit="10" stroke-width="3"/>
        <line id="Line_4" data-name="Line 4" x2="12.2" transform="translate(121 329.2)" fill="none" stroke="#221f1f" stroke-miterlimit="10" stroke-width="3"/>
      </g>
      <g id="Group_7" data-name="Group 7">
        <path id="Path_20" data-name="Path 20" d="M145.5,268.6h-5.3v6.8" fill="none" stroke="#221f1f" stroke-miterlimit="10" stroke-width="3"/>
        <line id="Line_5" data-name="Line 5" x2="9.1" transform="translate(132.1 268.6)" fill="none" stroke="#221f1f" stroke-miterlimit="10" stroke-width="3"/>
      </g>
      <g id="Group_8" data-name="Group 8">
        <path id="Path_21" data-name="Path 21" d="M84.5,268.6h5.3v6.8" fill="none" stroke="#221f1f" stroke-miterlimit="10" stroke-width="3"/>
        <line id="Line_6" data-name="Line 6" x1="9.2" transform="translate(88.8 268.6)" fill="none" stroke="#221f1f" stroke-miterlimit="10" stroke-width="3"/>
      </g>
      <g id="Group_9" data-name="Group 9">
        <path id="Path_22" data-name="Path 22" d="M145.6,158.8h-5.3v-6.7" fill="none" stroke="#221f1f" stroke-miterlimit="10" stroke-width="3"/>
        <line id="Line_7" data-name="Line 7" x2="9.1" transform="translate(132.2 158.9)" fill="none" stroke="#221f1f" stroke-miterlimit="10" stroke-width="3"/>
      </g>
      <g id="Group_10" data-name="Group 10">
        <path id="Path_23" data-name="Path 23" d="M84.5,158.8h5.3v-6.7" fill="none" stroke="#221f1f" stroke-miterlimit="10" stroke-width="3"/>
        <line id="Line_8" data-name="Line 8" x1="9.2" transform="translate(88.8 158.9)" fill="none" stroke="#221f1f" stroke-miterlimit="10" stroke-width="3"/>
      </g>
      <g id="Group_11" data-name="Group 11">
        <path id="Path_24" data-name="Path 24" d="M92.6,98.8h5.2V92.1" fill="none" stroke="#221f1f" stroke-miterlimit="10" stroke-width="3"/>
        <line id="Line_9" data-name="Line 9" x1="9.2" transform="translate(98.8 98.8)" fill="none" stroke="#221f1f" stroke-miterlimit="10" stroke-width="3"/>
      </g>
      <g id="Group_12" data-name="Group 12">
        <path id="Path_25" data-name="Path 25" d="M137.4,98.8h-5.3V92.1" fill="none" stroke="#221f1f" stroke-miterlimit="10" stroke-width="3"/>
        <line id="Line_10" data-name="Line 10" x2="9.2" transform="translate(122 98.8)" fill="none" stroke="#221f1f" stroke-miterlimit="10" stroke-width="3"/>
      </g>
    </g>
  </g>
</svg>