<?xml version="1.0" encoding="UTF-8"?>
<svg xmlns="http://www.w3.org/2000/svg" version="1.1" viewBox="0 0 200 76.961">
  <g>
    <g id="liuna-nj-logo">
      <path id="liuna" fill="#f8981c" d="M129.317,30.178c-.381-6.47-.293-12.919-.297-19.365,0-.376-.114-.521-.51-.567-.936-.109-1.862-.295-2.795-.432-.389-.057-.523-.235-.518-.637.021-1.744.024-3.489-.001-5.233-.007-.472.15-.591.603-.589,4.88.014,9.759.009,14.639.009.384,0,.768.012,1.152-.002.311-.012.42.117.418.425-.009,1.825-.01,3.649.001,5.474.002.317-.113.467-.419.518-.899.15-1.791.35-2.695.453-.474.054-.565.247-.559.671.021,1.472.008,2.945.008,4.417v29.338c0,.496-.241.744-.723.744-3.68,0-7.359-.007-11.039.01-.426.002-.658-.138-.868-.505-3.458-6.023-6.93-12.037-10.398-18.053-1.49-2.584-2.714-5.295-3.832-8.056-.065-.161-.134-.32-.275-.474,0,.274-.006.548,0,.821.066,2.687.159,5.373.194,8.06.047,3.568.056,7.137.064,10.705,0,.418.108.572.549.617,1.032.106,2.056.297,3.085.437.382.052.544.211.539.622-.019,1.76-.019,3.521,0,5.282.005.433-.16.541-.565.54-5.951-.01-11.903-.01-17.854,0-.398,0-.525-.132-.522-.526.016-1.728.018-3.457-.002-5.186-.005-.394.151-.535.51-.584,1.41-.192,2.816-.41,4.227-.593.697-.091.701-.067.701-.803V11.017c0-.71-.006-.679-.688-.767-1.427-.183-2.848-.41-4.274-.601-.391-.052-.478-.251-.475-.614.016-1.696.022-3.393-.003-5.09-.007-.469.149-.595.604-.594,4.256.015,8.511.009,12.767.009,1.36,0,2.72-.014,4.079.016.209.004.507.155.607.329,3.843,6.723,7.693,13.443,11.479,20.199,1.054,1.881,1.912,3.872,2.86,5.813.075.154.15.307.225.461h0ZM80.44,20.512c0-3.201-.008-6.402.008-9.603.002-.46-.124-.628-.607-.677-1.048-.105-2.087-.302-3.131-.451-.326-.046-.459-.197-.457-.539.012-1.808.013-3.617,0-5.425-.002-.367.149-.461.488-.461,5.472.007,10.943.007,16.414,0,.343,0,.485.104.483.466-.013,1.808-.013,3.617,0,5.425.003.351-.151.481-.465.533-.899.151-1.792.339-2.694.461-.373.05-.485.195-.482.548.012,1.328.005,2.657.004,3.985-.006,5.281.044,10.564-.04,15.844-.052,3.249-.84,6.341-2.669,9.091-1.915,2.879-4.64,4.653-7.921,5.555-4.744,1.303-9.531,1.32-14.267.005-5.192-1.442-8.191-4.963-9.094-10.241-.26-1.521-.378-3.084-.387-4.629-.042-6.482-.024-12.964-.006-19.446.001-.506-.13-.684-.643-.74-.872-.095-1.732-.296-2.599-.44-.306-.051-.424-.197-.422-.515.012-1.808.016-3.617-.003-5.425-.004-.405.166-.482.515-.479,1.12.013,2.24.004,3.359.004,4.351,0,8.703,0,13.054,0,.629,0,.631.002.631.643.001,1.712-.012,3.425.009,5.137.005.422-.131.604-.549.658-.998.13-1.991.303-2.988.441-.649.09-.653.076-.653.759,0,2.913,0,5.826,0,8.738,0,3.473-.029,6.947.017,10.419.015,1.096.139,2.209.378,3.278.529,2.374,2.058,3.801,4.433,4.315,1.759.381,3.53.391,5.289.044,2.725-.539,4.209-2.125,4.711-5.057.17-.989.258-2.002.269-3.006.034-3.072.012-6.146.012-9.219h0ZM171.455,38.552c-.422-1.215-.81-2.365-1.235-3.501-.043-.114-.307-.201-.47-.205-.8-.021-1.6-.01-2.4-.01-3.456,0-6.912.009-10.368-.01-.467-.003-.679.15-.816.59-.321,1.036-.693,2.055-1.064,3.137.918.147,1.78.284,2.641.423.316.051.629.131.946.155.377.029.51.185.505.574-.019,1.728-.019,3.457,0,5.186.004.405-.139.517-.528.516-5.216-.01-10.432-.01-15.648,0-.391,0-.532-.118-.529-.52.017-1.729.016-3.457,0-5.186-.003-.365.102-.569.477-.632.693-.116,1.379-.289,2.075-.363.383-.041.552-.181.671-.535,1.826-5.429,3.664-10.855,5.5-16.281,2.036-6.017,4.077-12.033,6.102-18.054.126-.375.313-.483.691-.482,3.68.012,7.36.014,11.04-.002.419-.002.579.164.708.531,3.98,11.321,7.975,22.638,11.949,33.961.195.556.4.886,1.073.896.612.009,1.221.228,1.832.351.276.056.395.205.394.501-.01,1.793-.01,3.586,0,5.378.002.347-.15.436-.465.434-1.2-.01-2.4-.004-3.6-.004h-12.912q-.662,0-.664-.659c0-1.665.01-3.329-.008-4.994-.004-.392.101-.567.513-.623,1.169-.162,2.332-.368,3.588-.571h0ZM163.201,13.076c-.946,4.882-2.939,9.418-4.466,14.143h8.997c-1.439-4.769-3.565-9.26-4.532-14.143h0ZM14.674,45.4H.658c-.645,0-.647-.002-.648-.627-.001-1.681.012-3.361-.01-5.042-.005-.405.13-.574.521-.626,1.426-.19,2.846-.428,4.276-.582.473-.051.612-.176.611-.653-.016-5.666-.01-11.333-.01-16.999,0-3.329-.007-6.659.009-9.988.002-.441-.114-.587-.576-.638-1.461-.163-2.912-.407-4.37-.599-.375-.05-.458-.236-.456-.578.012-1.729.014-3.457-.002-5.186-.004-.394.124-.527.522-.526,6.512.009,13.024.009,19.536,0,.378,0,.499.13.497.502-.014,1.745-.013,3.489,0,5.234.002.332-.096.499-.437.546-1.489.201-2.973.437-4.465.612-.415.049-.539.183-.539.586.008,8.66.008,17.319-.001,25.979,0,.424.138.547.554.541,1.712-.02,3.424-.019,5.136,0,.378.004.529-.104.577-.492.156-1.238.361-2.469.527-3.705.052-.383.198-.542.612-.538,2.08.02,4.16.018,6.24,0,.419-.004.549.125.547.548-.014,3.89-.015,7.779,0,11.669.002.443-.134.572-.571.571-4.688-.013-9.376-.008-14.064-.008h0ZM47.527,26.442v11.331c0,.676.004.653.654.745,1.266.179,2.527.391,3.792.578.365.054.503.226.499.606-.017,1.728-.016,3.457,0,5.185.004.405-.152.519-.537.518-6.255-.008-12.51-.008-18.765,0-.392,0-.531-.122-.527-.521.016-1.728.018-3.457-.001-5.185-.004-.387.138-.543.502-.591,1.473-.196,2.943-.423,4.418-.597.373-.044.482-.164.481-.527-.009-5.265-.011-10.531.003-15.796.001-.423-.162-.555-.545-.595-1.463-.152-2.922-.333-4.385-.479-.342-.034-.473-.155-.471-.502.011-1.728.014-3.457-.002-5.185-.004-.375.151-.513.497-.54,1.625-.127,3.249-.305,4.876-.383,2.155-.104,4.314-.146,6.472-.187.862-.016,1.726.056,2.589.058.372,0,.457.164.455.497-.01,1.488-.004,2.977-.004,4.465v7.106h0ZM187.96,9.204c0-1.76.01-3.52-.007-5.279-.004-.421.106-.588.565-.585,3.454.018,6.909.016,10.363.002.416-.002.553.118.551.543-.014,3.536.046,7.073-.037,10.606-.03,1.282-.376,2.558-.597,3.833-.752,4.349-1.52,8.694-2.261,13.045-.08.469-.249.633-.735.623-1.439-.032-2.878-.025-4.317-.003-.409.006-.552-.148-.618-.532-.942-5.452-1.897-10.901-2.843-16.352-.049-.282-.06-.573-.061-.86-.006-1.68-.003-3.36-.003-5.04h0ZM48.242,6.047c-.003,3.372-2.693,5.944-6.214,5.943-3.529-.002-6.219-2.603-6.21-6.006C35.826,2.615,38.528.007,42.018,0c3.541-.007,6.226,2.602,6.223,6.047ZM193.74,46.594c-3.027,0-5.466-1.868-6.075-4.652-.815-3.723,1.985-7.235,5.797-7.287,2.542-.034,4.584.898,5.816,3.18,2.124,3.933-.683,8.664-5.153,8.757-.128.003-.256,0-.384,0h0Z"/>
      <path id="new-jersey" fill="#666" d="M51.433,66.841c.152-1.236.289-2.355.426-3.473.337-2.76.673-5.521,1.01-8.281.048-.397.081-.796.156-1.188.024-.126.159-.327.247-.329.937-.024,1.875-.015,2.878-.015-.108.908-.205,1.744-.308,2.579-.368,2.982-.738,5.964-1.107,8.945-.29,2.347-.583,4.694-.866,7.042-.036.298-.17.419-.465.411-.464-.011-.928-.014-1.391,0-.591.017-.981-.236-1.273-.757-1.365-2.443-2.755-4.874-4.135-7.309-.883-1.559-1.765-3.118-2.648-4.676-.084-.149-.179-.293-.348-.567-.109.889-.202,1.638-.293,2.388-.342,2.824-.685,5.648-1.025,8.472-.08.666-.14,1.336-.241,1.999-.024.156-.174.414-.273.418-.936.032-1.874.019-2.871.019.112-.945.213-1.813.319-2.68.34-2.776.681-5.552,1.025-8.327.313-2.522.635-5.043.938-7.565.037-.309.163-.406.455-.408.527-.003,1.053-.03,1.579-.054.509-.024.781.284,1.006.683,1.328,2.355,2.66,4.706,3.992,7.059.969,1.712,1.938,3.425,2.908,5.136.074.132.162.256.304.479h0ZM73.942,68.548c.603-1.49,1.217-3.013,1.835-4.535.565-1.393,1.15-2.778,1.695-4.179.231-.594.613-.862,1.243-.822.335.022.671,0,1.008.005.696.009.896.162,1.002.828.273,1.704.535,3.41.798,5.116.18,1.168.355,2.337.54,3.551.054-.088.108-.15.134-.222,1.019-2.844,2.038-5.688,3.05-8.535.179-.503.511-.746,1.045-.741.746.008,1.491.002,2.309.002-.08.238-.122.389-.181.532-1.713,4.154-3.433,8.305-5.133,12.465-.158.387-.355.548-.775.526-.606-.032-1.216-.02-1.823-.005-.429.01-.645-.18-.714-.6-.341-2.082-.692-4.162-1.038-6.243-.114-.686-.224-1.373-.358-2.19-.395.952-.741,1.785-1.086,2.62-.764,1.847-1.525,3.696-2.29,5.542-.345.832-.403.868-1.322.868-.528,0-1.056-.006-1.583,0-.259.003-.417-.077-.464-.361-.724-4.319-1.453-8.636-2.18-12.954-.005-.03.01-.062.034-.2.353,0,.727,0,1.1,0,.464,0,.928-.012,1.391.008.519.022.751.241.808.76.322,2.922.637,5.844.954,8.764h0ZM62.213,72.723c-2.948.009-4.967-1.717-5.266-4.668-.332-3.279.669-6.094,3.394-8.081,1.731-1.263,3.73-1.566,5.744-.788,2.752,1.064,2.765,3.844,1.467,5.262-.518.565-1.264.977-1.979,1.296-1.501.67-3.125.897-4.747,1.08-.733.083-.78.119-.668.852.014.095.032.189.047.284.246,1.625,1.287,2.294,2.885,2.191.836-.054,1.576-.365,2.249-.866.291-.217.618-.396.95-.546.343-.156.662-.044.91.23.225.249.425.52.649.77.186.208.167.357-.032.563-1.57,1.625-3.378,2.413-5.602,2.421h0ZM60.449,64.606l.09.181c1.091-.275,2.191-.52,3.268-.841.399-.119.784-.371,1.105-.644.428-.364.507-.892.331-1.409-.174-.513-.617-.7-1.13-.744-.681-.058-1.3.104-1.854.508-1.011.738-1.489,1.797-1.81,2.949h0ZM109.714,72.722c-3.211.012-5.237-1.718-5.534-4.66-.331-3.279.665-6.094,3.389-8.084,1.73-1.264,3.729-1.57,5.743-.794,2.793,1.076,2.759,3.901,1.448,5.296-.516.549-1.245.951-1.947,1.263-1.502.667-3.125.897-4.747,1.081-.741.084-.787.117-.676.846.017.11.034.221.053.331.273,1.628,1.303,2.228,2.826,2.155.851-.04,1.612-.352,2.298-.868.29-.218.617-.397.948-.549.342-.156.681-.064.909.225,1.039,1.314,1.153.863-.097,1.96-1.388,1.219-3.009,1.852-4.612,1.796h0ZM107.647,64.73c1.399-.232,2.698-.397,3.888-.992.212-.106.417-.244.589-.406.427-.402.533-.92.347-1.453-.178-.509-.626-.694-1.14-.732-.591-.044-1.145.064-1.651.384-1.146.725-1.656,1.852-2.034,3.199h0ZM141.992,72.722c-3.246.015-5.251-1.692-5.558-4.696-.333-3.259.677-6.059,3.38-8.042,1.73-1.268,3.728-1.572,5.742-.804,2.789,1.064,2.778,3.882,1.466,5.291-.513.551-1.242.956-1.943,1.267-1.517.672-3.155.907-4.794,1.088-.697.077-.748.123-.642.832.016.111.036.221.053.331.26,1.604,1.281,2.256,2.863,2.164.835-.049,1.581-.351,2.251-.859.266-.201.554-.383.856-.524.407-.191.78-.101,1.072.255.091.111.18.224.271.336.575.699.565.687-.124,1.311-1.469,1.331-3.149,2.112-4.894,2.049h0ZM139.983,64.739c.8-.161,1.591-.267,2.348-.489.651-.19,1.295-.459,1.885-.793.527-.299.71-.979.544-1.52-.141-.463-.624-.744-1.251-.798-1.892-.163-3.325,1.904-3.526,3.6h0ZM149.59,76.949c.28-.52.493-.926.715-1.327.671-1.219,1.333-2.442,2.024-3.649.19-.331.231-.624.13-.993-1.04-3.774-2.066-7.553-3.095-11.33-.049-.181-.088-.365-.146-.605,1.045,0,2.032-.028,3.015.013.421.018.52.429.603.774.393,1.647.781,3.296,1.166,4.945.214.917.421,1.835.647,2.82.081-.142.153-.249.208-.365,1.162-2.457,2.331-4.91,3.477-7.374.278-.598.683-.876,1.347-.849.747.031,1.496.007,2.34.007-.088.214-.134.355-.201.486-2.847,5.511-5.702,11.017-8.536,16.535-.335.651-.774.963-1.511.921-.682-.039-1.368-.008-2.183-.008h0ZM103.429,53.482c-.087.765-.159,1.444-.242,2.122-.373,3.045-.752,6.089-1.122,9.135-.176,1.445-.345,2.892-.951,4.24-1.056,2.348-2.842,3.663-5.441,3.725-.871.021-1.746-.137-2.619-.216-.323-.029-.429-.21-.382-.525.076-.505.128-1.014.195-1.521.076-.574.319-.791.896-.756.477.029.951.113,1.428.142,1.301.08,2.227-.534,2.647-1.718.337-.952.528-1.972.664-2.978.38-2.802.699-5.613,1.041-8.421.112-.92.226-1.84.319-2.762.033-.326.142-.481.501-.473.988.02,1.977.007,3.066.007h0ZM131.976,58.719c1.406-.034,2.632.42,3.71,1.319.273.228.292.408.074.671-.194.233-.355.493-.531.74-.419.586-.74.677-1.378.304-.784-.458-1.606-.741-2.513-.583-.379.066-.786.208-1.087.438-.764.585-.707,1.568.095,2.096.331.217.707.369,1.071.531.511.227,1.042.41,1.543.655,1.784.873,2.401,2.279,1.866,4.2-.537,1.926-2.311,3.375-4.422,3.588-1.673.168-3.249-.069-4.63-1.132-.373-.287-.497-.537-.161-.933.194-.23.323-.514.497-.763.412-.591.946-.699,1.518-.256.782.605,1.631.926,2.63.798.579-.074,1.084-.287,1.435-.77.552-.758.406-1.618-.389-2.108-.39-.24-.834-.395-1.261-.573-.368-.154-.751-.273-1.117-.432-1.835-.797-2.505-2.157-2.037-4.111.473-1.974,2.203-3.46,4.228-3.631.287-.024.574-.032.862-.047h0ZM121.074,61.904c.406-.553.804-1.174,1.28-1.726.757-.877,1.684-1.424,2.909-1.221.601.1.671.2.561.79-.166.892-.327,1.784-.495,2.705-.104-.022-.169-.02-.217-.048-1.168-.684-2.411-.175-3.109.816-.887,1.259-1.317,2.687-1.501,4.2-.193,1.586-.391,3.172-.572,4.759-.031.273-.161.352-.405.351-.8-.003-1.6-.018-2.399.007-.447.014-.502-.206-.457-.565.178-1.395.349-2.79.52-4.186.305-2.49.607-4.98.911-7.471.018-.143.031-.286.053-.428.093-.581.443-.871,1.052-.87.336,0,.673-.01,1.006.022.581.056.853.363.859.949.007.653.002,1.307.002,1.917h0Z"/>
    </g>
  </g>
</svg>